<?xml version="1.0" encoding="UTF-8"?>
<svg id="Layer_2" data-name="Layer 2" xmlns="http://www.w3.org/2000/svg" xmlns:xlink="http://www.w3.org/1999/xlink" viewBox="0 0 650 143.3">
  <defs>
    <style>
      .cls-1 {
        fill: #031d28;
      }

      .cls-2 {
        fill: #95b6c6;
      }

      .cls-3 {
        fill: url(#linear-gradient);
      }
    </style>
    <linearGradient id="linear-gradient" x1="63.54" y1="12.66" x2="132.19" y2="130.79" gradientUnits="userSpaceOnUse">
      <stop offset="0" stop-color="#bde5d2"/>
      <stop offset=".34" stop-color="#c6dad6"/>
      <stop offset=".92" stop-color="#e0bfe2"/>
      <stop offset="1" stop-color="#e5bbe4"/>
    </linearGradient>
  </defs>
  <g id="Logo_Wide_B_Color">
    <g id="Name">
      <path class="cls-1" d="M333.86,48.51c-1.98-4.17-4.48-8.15-7.45-11.82-2.98-3.68-6.55-6.93-10.61-9.67-4.05-2.73-8.71-4.92-13.84-6.52-5.13-1.6-10.9-2.41-17.13-2.41s-11.65.8-16.65,2.38c-5,1.58-9.55,3.77-13.51,6.53-3.95,2.75-7.46,6-10.41,9.66-2.95,3.65-5.43,7.61-7.38,11.79-1.95,4.17-3.42,8.54-4.36,12.98-.95,4.44-1.43,8.87-1.43,13.16s.45,8.98,1.35,13.49c.9,4.52,2.3,8.91,4.18,13.06,1.88,4.15,4.31,8.1,7.24,11.72,2.93,3.64,6.48,6.84,10.54,9.52,4.06,2.68,8.76,4.83,13.99,6.37,5.23,1.55,11.16,2.34,17.64,2.34,6.04,0,11.64-.81,16.62-2.41,4.98-1.6,9.52-3.81,13.5-6.56,3.98-2.75,7.49-6.01,10.45-9.7,2.95-3.67,5.42-7.65,7.34-11.83,1.92-4.17,3.39-8.52,4.36-12.94.97-4.42,1.47-8.81,1.47-13.06s-.49-8.65-1.47-13.09c-.97-4.44-2.47-8.81-4.44-12.98ZM286.32,123.32c-4.44,0-8.5-.76-12.08-2.25-3.6-1.5-6.88-3.54-9.75-6.08-2.88-2.54-5.4-5.56-7.51-8.98-2.12-3.43-3.9-7.1-5.28-10.91-1.39-3.81-2.44-7.75-3.12-11.73-.68-3.97-1.03-7.87-1.03-11.58,0-5.56.78-11.15,2.31-16.64,1.53-5.47,3.86-10.46,6.91-14.83,3.04-4.35,6.91-7.93,11.51-10.64,4.57-2.69,9.96-4.06,16.04-4.06,4.09,0,7.93.71,11.42,2.1,3.49,1.4,6.71,3.34,9.56,5.78,2.85,2.45,5.41,5.37,7.59,8.69,2.19,3.34,4.07,6.97,5.58,10.79,1.51,3.83,2.67,8,3.45,12.38.78,4.4,1.18,8.46,1.18,12.06,0,3.36-.36,7.01-1.07,10.87-.71,3.85-1.75,7.51-3.12,10.9-1.36,3.38-3.08,6.58-5.12,9.52-2.03,2.92-4.43,5.5-7.13,7.65-2.7,2.15-5.78,3.86-9.15,5.09-3.37,1.23-7.13,1.85-11.18,1.85Z"/>
      <path class="cls-1" d="M404.78,51.04c-1.04-.86-2.29-1.49-3.69-1.89-1.37-.39-2.81-.59-4.26-.59-2.8,0-5.57.5-8.22,1.5-2.62.98-5.1,2.26-7.37,3.8-2.27,1.54-4.33,3.3-6.15,5.24-1.18,1.26-2.23,2.53-3.14,3.79-.08-2.65-.17-4.9-.27-6.73-.12-2.36-.26-4.36-.41-5.94l-.06-.69h-5.37l-.22.2c-.57.52-1.17,1.01-1.79,1.47-.59.43-1.35.84-2.26,1.21-.9.37-2.06.67-3.43.88-1.39.22-3.18.33-5.31.33h-5.44v7.8l10.64-.44c-.21,1.44-.34,2.85-.38,4.19-.05,1.6-.07,3.22-.07,4.82v34.78c0,2.7-.04,5.22-.11,7.48-.07,2.19-.37,4.1-.89,5.65-.49,1.48-1.29,2.64-2.37,3.46-1.07.81-2.71,1.22-4.86,1.22h-.76v6.06h32.73v-7.8l-9.45.44c.21-1.43.34-2.81.38-4.11.05-1.58.07-3.41.07-5.41l-.15-37.19c1.29-2.41,2.76-4.64,4.36-6.62,1.64-2.02,3.41-3.78,5.26-5.23,1.84-1.43,3.73-2.53,5.64-3.27,1.6-.62,3.2-.96,4.77-1.02-.04.93.05,1.82.28,2.66.3,1.11.8,2.11,1.48,2.96.68.84,1.53,1.55,2.53,2.09,1.02.55,2.18.83,3.45.83,1.51,0,2.8-.28,3.85-.83,1.02-.54,1.89-1.23,2.57-2.04.68-.81,1.18-1.7,1.48-2.63.3-.92.45-1.77.45-2.54,0-1.8-.33-3.36-.97-4.65-.64-1.28-1.49-2.36-2.54-3.22Z"/>
      <path class="cls-1" d="M478.6,59.24c-3.15-3.41-6.92-6.07-11.18-7.91-4.26-1.84-8.93-2.77-13.86-2.77s-9.37.83-13.33,2.47c-3.39,1.4-6.41,3.28-9.02,5.59V12.22h-5.44l-.22.2c-.55.51-1.21.99-1.96,1.43-.73.43-1.77.85-3.09,1.22-1.33.38-3.1.69-5.25.9-2.17.22-4.93.33-8.21.33h-.76v7.96l10.68-.59c-.18,1.68-.29,3.17-.31,4.45-.03,1.49-.04,3.03-.04,4.62l-.3,95.89h6.57l3.35-6.28c1.43,1.52,2.98,2.82,4.63,3.86,1.92,1.21,3.92,2.2,5.94,2.93,2.02.73,4.05,1.25,6.02,1.52,1.96.28,3.85.42,5.61.42,5.18,0,10.26-1.02,15.12-3.03,4.85-2.01,9.19-4.92,12.88-8.64,3.69-3.72,6.7-8.27,8.93-13.54,2.23-5.27,3.37-11.27,3.37-17.84,0-6.01-.9-11.51-2.68-16.35-1.79-4.85-4.29-9.04-7.44-12.44ZM448.43,123.32c-2.25,0-4.45-.28-6.53-.83-2.03-.54-3.86-1.53-5.45-2.95-1.59-1.42-2.87-3.4-3.81-5.87-.95-2.5-1.44-5.77-1.44-9.72v-38.2c2.26-2.44,4.96-4.42,8.04-5.89,3.15-1.5,6.39-2.27,9.63-2.27,3.81,0,7.15.84,9.94,2.49,2.81,1.66,5.17,4.01,7.03,6.96,1.88,2.99,3.31,6.62,4.25,10.8.95,4.21,1.43,8.89,1.43,13.92,0,4.71-.55,9.07-1.64,12.95-1.08,3.86-2.65,7.22-4.64,9.98-1.98,2.74-4.41,4.89-7.24,6.39-2.82,1.5-6.04,2.25-9.57,2.25Z"/>
      <path class="cls-1" d="M518.81,117.16c.05-1.58.07-3.41.07-5.41v-62.22h-5.44l-.22.2c-.55.51-1.2.99-1.93,1.43-.71.43-1.73.84-3.04,1.22-1.33.38-3.09.69-5.22.9-2.14.22-4.89.33-8.17.33h-.76v7.96l10.67-.59c-.19,1.66-.32,3.15-.38,4.43-.07,1.49-.11,3.05-.11,4.65v34.71c0,2.7-.04,5.22-.11,7.48-.07,2.19-.37,4.1-.89,5.65-.49,1.48-1.29,2.64-2.37,3.46-1.07.81-2.71,1.22-4.85,1.22h-.76v6.06h32.59v-7.8l-9.45.44c.21-1.43.34-2.81.38-4.11Z"/>
      <path class="cls-1" d="M504.97,33.08c.83.89,1.8,1.58,2.88,2.07,1.08.49,2.24.74,3.43.74s2.35-.25,3.43-.74c1.08-.49,2.04-1.19,2.85-2.08.8-.87,1.45-1.91,1.96-3.07.51-1.18.77-2.46.77-3.79s-.23-2.67-.68-3.87c-.45-1.19-1.09-2.26-1.89-3.17-.81-.91-1.75-1.64-2.8-2.15-2.13-1.04-4.83-1.04-7.01,0-1.08.51-2.04,1.23-2.87,2.14-.83.91-1.49,1.97-1.97,3.17-.48,1.2-.72,2.51-.72,3.89s.23,2.6.68,3.77c.45,1.18,1.11,2.22,1.94,3.11Z"/>
      <path class="cls-1" d="M580.36,112.14c-1.91,2.82-4.13,5.02-6.61,6.54-2.44,1.5-4.93,2.27-7.4,2.27-2.08,0-3.8-.42-5.13-1.26-1.33-.84-2.43-2.11-3.25-3.78-.85-1.73-1.47-3.9-1.82-6.46-.37-2.6-.55-5.65-.55-9.07v-.48c0-.27.01-.87.04-1.8.02-.94.04-2.33.04-4.14s.01-4.27.04-7.39c.02-3.12.04-7.01.04-11.67s.02-9.85.07-16.12l25.64-.3v-7.46h-25.64c0-2.9.01-5.96.04-9.19.02-3.52.04-7.31.04-11.38v-.76h-6.53l-.16.55c-.63,2.13-1.52,4.45-2.64,6.88-1.11,2.41-2.49,4.67-4.11,6.72-1.6,2.03-3.48,3.75-5.58,5.11-2.05,1.33-4.37,2.02-6.88,2.07h-.75v8.07l11.66-.07-.29,43.22c-.05,4.09.23,7.7.83,10.71.6,3.03,1.45,5.64,2.52,7.77,1.08,2.15,2.34,3.93,3.76,5.3,1.42,1.37,2.96,2.44,4.6,3.19,1.62.74,3.29,1.25,4.96,1.51,1.64.25,3.27.38,4.83.38,1.31,0,2.86-.13,4.61-.38,1.78-.26,3.72-.89,5.76-1.89,2.03-.99,4.2-2.48,6.44-4.42,2.25-1.95,4.53-4.66,6.79-8.07l.38-.57-5.26-4.31-.47.69Z"/>
      <path class="cls-1" d="M642.82,92.66c-2.12-1.82-4.57-3.41-7.29-4.75-2.68-1.31-5.44-2.57-8.22-3.73-2.78-1.16-5.5-2.3-8.18-3.42-2.62-1.09-4.98-2.33-7.01-3.68-1.99-1.33-3.61-2.86-4.82-4.56-1.16-1.64-1.75-3.65-1.75-5.95,0-1.42.3-2.78.9-4.06.59-1.28,1.49-2.43,2.66-3.42,1.18-1,2.66-1.8,4.4-2.39,1.75-.59,3.79-.89,6.07-.89,3.13,0,5.85.62,8.11,1.84,2.27,1.23,4.18,2.85,5.66,4.81,1.5,1.98,2.66,4.24,3.45,6.72.8,2.51,1.3,5.07,1.49,7.63l.05.7h6.22v-28.2h-7.96l.32,4.97c-1.19-.84-2.4-1.58-3.62-2.21-1.67-.86-3.36-1.56-5.02-2.09-1.67-.53-3.33-.9-4.93-1.11-1.59-.2-3.11-.3-4.52-.3-5.19,0-9.56.79-12.98,2.33-3.43,1.55-6.2,3.5-8.24,5.8-2.05,2.3-3.5,4.81-4.32,7.45-.81,2.61-1.22,5.05-1.22,7.25,0,3.52.67,6.62,1.98,9.19,1.3,2.55,3.04,4.78,5.16,6.62,2.1,1.82,4.51,3.42,7.18,4.75,2.63,1.32,5.37,2.54,8.12,3.63,2.75,1.09,5.45,2.15,8.1,3.19,2.6,1.02,4.93,2.18,6.93,3.45,1.97,1.25,3.58,2.71,4.78,4.33,1.16,1.56,1.75,3.49,1.75,5.74,0,1.91-.47,3.57-1.39,4.95-.95,1.41-2.2,2.59-3.71,3.52-1.54.94-3.26,1.65-5.13,2.1-4.8,1.15-9.6.83-13.81-.85-2.55-1.02-4.85-2.47-6.83-4.3-1.98-1.83-3.59-4.04-4.81-6.58-1.22-2.54-1.93-5.37-2.12-8.42l-.04-.71h-6.18l.94,27.68h7.97l-.45-4.54c2.35,1.42,5.2,2.72,8.5,3.87,3.98,1.38,8.64,2.09,13.85,2.09,3.27,0,6.56-.46,9.76-1.37,3.22-.91,6.15-2.33,8.71-4.21,2.58-1.89,4.69-4.33,6.28-7.24,1.59-2.92,2.4-6.4,2.4-10.32,0-3.38-.67-6.35-1.98-8.83-1.3-2.45-3.05-4.63-5.19-6.46Z"/>
    </g>
    <g id="Symbol">
      <path class="cls-3" d="M169.37,67.88c1.35,26.03-11.61,51.88-35.73,65.81-24.14,13.93-53,12.24-74.87-1.96,17.56-6.05,37.63-15.25,58.11-27.07,20.48-11.82,38.47-24.59,52.5-36.77ZM62,9.61C27.74,29.39,16,73.2,35.78,107.47c2.62,4.53,5.65,8.66,9.02,12.38,17.54-6.13,40.09-17.21,63.52-31.79,23.21-14.44,42.96-29.61,56.22-42.54-1.3-3.29-2.85-6.53-4.68-9.69C140.08,1.57,96.26-10.17,62,9.61Z"/>
      <path class="cls-2" d="M199.44,18.96c5.69,9.86-6.65,28.55-30.07,48.91h0c-14.03,12.19-32.02,24.96-52.5,36.78-20.48,11.82-40.55,21.03-58.11,27.07-29.34,10.11-51.7,11.44-57.39,1.59-5.14-8.9,4.45-25.04,23.65-43.1.39,3.09,1.03,6.15,1.91,9.16-10.04,10.28-14.74,18.75-12.03,23.45,6.22,10.77,49.02-2.3,95.6-29.2,46.58-26.89,79.3-57.42,73.08-68.19-2.71-4.69-12.39-4.85-26.31-1.3-2.17-2.26-4.5-4.35-6.99-6.24,25.23-7.6,44.01-7.84,49.15,1.07Z"/>
    </g>
  </g>
</svg>
