<?xml version="1.0" encoding="UTF-8"?>
<svg id="Layer_2" data-name="Layer 2" xmlns="http://www.w3.org/2000/svg" xmlns:xlink="http://www.w3.org/1999/xlink" viewBox="0 0 650 463.85">
  <defs>
    <style>
      .cls-1 {
        fill: #95b6c6;
      }

      .cls-2 {
        fill: url(#linear-gradient);
      }
    </style>
    <linearGradient id="linear-gradient" x1="205.67" y1="40.98" x2="427.87" y2="423.34" gradientUnits="userSpaceOnUse">
      <stop offset="0" stop-color="#bde5d2"/>
      <stop offset=".34" stop-color="#c6dad6"/>
      <stop offset=".92" stop-color="#e0bfe2"/>
      <stop offset="1" stop-color="#e5bbe4"/>
    </linearGradient>
  </defs>
  <g id="Logo_Symbol_WhiteColor">
    <g id="Symbol">
      <path class="cls-2" d="M548.23,219.71c4.36,84.26-37.57,167.93-115.66,213.02-78.12,45.1-171.56,39.63-242.36-6.35,56.84-19.57,121.81-49.36,188.09-87.63,66.28-38.27,124.51-79.61,169.93-119.03ZM200.69,31.11C89.78,95.14,51.78,236.95,115.81,347.86c8.47,14.66,18.27,28.03,29.18,40.07,56.76-19.84,129.75-55.7,205.61-102.88,75.13-46.73,139.06-95.85,181.97-137.7-4.21-10.66-9.24-21.14-15.14-31.36C453.41,5.07,311.59-32.93,200.69,31.11Z"/>
      <path class="cls-1" d="M645.55,61.38c18.42,31.9-21.51,92.42-97.34,158.31l.02.03c-45.41,39.42-103.64,80.76-169.93,119.03-66.28,38.27-131.26,68.06-188.09,87.63-94.97,32.73-167.35,37.04-185.76,5.14-16.64-28.82,14.41-81.06,76.55-139.49,1.28,9.99,3.32,19.92,6.19,29.64-32.48,33.29-47.71,60.68-38.93,75.89,20.13,34.87,158.67-7.46,309.44-94.5,150.77-87.04,256.69-185.86,236.56-220.73-8.76-15.18-40.1-15.69-85.17-4.2-7.01-7.33-14.56-14.08-22.61-20.19,81.67-24.59,142.44-25.36,159.08,3.46Z"/>
    </g>
  </g>
</svg>